<svg xmlns="http://www.w3.org/2000/svg" viewBox="0 0 24 24"><g data-name="MySQL Logo"><g data-name="&lt;Group&gt;"><path fill="none" stroke="#303c42" stroke-linecap="round" stroke-linejoin="round" d="M23.5 23.5c-.91-1.29-3.56-2.25-4-4 1.5-.25 4-1 4-1a14.86 14.86 0 0 0-6-4C16.19 12.06 13.72 3 4.5 2c0 0-2.19-1.5-3-1.5s-1 .25-1 1 2 2.75 2 3.5a10 10 0 0 0 2 4.5 7.48 7.48 0 0 0-1 4c0 2.22 1 3.5 2 3.5s1-3.5 1-3.5 1.34 4.13 4 6" data-name="&lt;Path&gt;"/></g><path fill="none" stroke="#303c42" stroke-linecap="round" stroke-linejoin="round" d="M6 5a1 1 0 0 0-1-1" data-name="&lt;Path&gt;"/></g></svg>