<svg xmlns="http://www.w3.org/2000/svg" width="48" height="48" data-name="Layer 1"><path d="m38.43 20-4.7 2.87v-6l-2.66 1.71V27l-2.21 1.41L26.43 27v-2.62l4.64-2.9-2.18-1.36-4.81 2.82-4.83-3-4.87 2.93L9.6 20l-4.83 2.78v5.53l2.37 1.49v-5.47l2.46-1.47 2.29 1.44v5.55l2.51-1.49 4.81 2.8 4.79-2.8 4.89 2.8 4.87-2.8 4.58 2.8v-3L36.1 27v-2.76l2.35-1.36 2.32 1.41v2.55l2.43-1.41v-2.6Zm-16.81 7-2.4 1.38-2.4-1.38v-2.75l2.4-1.38 2.4 1.38Z"/><path d="M37.13 24.76v1.52l1.32.76 1.31-.76v-1.52L38.45 24l-1.32.76z"/></svg>