<svg xmlns="http://www.w3.org/2000/svg" width="48" height="48" data-name="Layer 1"><path d="m35.93 18.21-1.2-.38c.07-.27.13-.54.19-.81.9-4.38.31-7.91-1.7-9.07s-5.09 0-8.28 2.83c-.31.26-.62.55-.92.84l-.62-.56c-3.34-3-6.69-4.22-8.7-3.06s-2.5 4.43-1.7 8.58q.12.6.27 1.23c-.47.13-.93.28-1.37.43C8 19.61 5.49 21.75 5.49 24s2.69 4.59 6.77 6c.32.11.66.21 1 .31-.11.45-.21.89-.29 1.32-.77 4.08-.17 7.32 1.76 8.43s5.32 0 8.57-2.87l.77-.72c.33.33.67.63 1 .92 3.14 2.7 6.25 3.8 8.17 2.68s2.63-4.62 1.8-8.85c-.07-.33-.14-.66-.23-1l.69-.22c4.25-1.4 7-3.68 7-6s-2.58-4.42-6.57-5.79ZM35 28.47l-.63.2A36 36 0 0 0 32.51 24a36.16 36.16 0 0 0 1.8-4.62c.38.11.75.22 1.1.34 3.43 1.18 5.52 2.93 5.52 4.27s-2.26 3.27-5.93 4.48Zm-1.52 3a13.3 13.3 0 0 1 .17 4.89 3.27 3.27 0 0 1-1.21 2.3c-1.17.67-3.66-.21-6.35-2.52-.31-.27-.62-.55-.93-.85a38.11 38.11 0 0 0 3.1-3.94 37.68 37.68 0 0 0 5-.77c.1.31.17.61.23.9Zm-15.37 7.08a3.29 3.29 0 0 1-2.59.1c-1.17-.68-1.66-3.28-1-6.76q.11-.6.27-1.23a37 37 0 0 0 5 .72A39.63 39.63 0 0 0 23 35.31l-.7.65a13.56 13.56 0 0 1-4.19 2.59Zm-5.34-10.09a13.34 13.34 0 0 1-4.31-2.29A3.29 3.29 0 0 1 7.07 24c0-1.35 2-3.07 5.36-4.24.41-.14.84-.27 1.28-.4a38.16 38.16 0 0 0 1.8 4.64 37 37 0 0 0-1.82 4.74c-.32-.08-.62-.18-.92-.28Zm1.79-12.18c-.69-3.56-.23-6.24.93-6.91s4 .31 6.86 2.87c.19.16.37.33.56.51a37.4 37.4 0 0 0-3.15 3.9 37.87 37.87 0 0 0-4.94.77c-.1-.42-.18-.77-.26-1.14Zm16 3.94a47.9 47.9 0 0 0-1.13-1.85c1.18.15 2.32.35 3.38.59-.32 1-.72 2.09-1.19 3.19-.36-.64-.72-1.28-1.09-1.93ZM24 13.88a33.48 33.48 0 0 1 2.18 2.63c-.73 0-1.46-.05-2.2-.05s-1.46 0-2.18.05c.74-.95 1.48-1.83 2.2-2.63Zm-6.55 6.35q-.55 1-1 1.92a37.22 37.22 0 0 1-1.18-3.21c1.06-.23 2.19-.43 3.36-.57-.39.6-.77 1.23-1.13 1.86Zm1.16 9.45a32.43 32.43 0 0 1-3.41-.55c.33-1.05.73-2.15 1.2-3.26.33.64.68 1.28 1 1.91.45.65.83 1.28 1.23 1.9Zm5.43 4.49a34.21 34.21 0 0 1-2.23-2.67c.71 0 1.44.05 2.17.05s1.5 0 2.23-.05a32.53 32.53 0 0 1-2.15 2.67Zm7.55-8.36a34.49 34.49 0 0 1 1.24 3.26 33 33 0 0 1-3.45.58c.38-.61.76-1.23 1.13-1.88s.76-1.31 1.1-1.96ZM29.17 27c-.58 1-1.18 2-1.78 2.87-1.1.07-2.23.11-3.39.11s-2.27 0-3.35-.1C20 28.94 19.41 28 18.84 27c-.57-1-1.1-2-1.58-3 .48-1 1-2 1.57-3q.87-1.48 1.8-2.85c1.1-.09 2.23-.13 3.37-.13 1.15 0 2.28 0 3.38.13.61.9 1.21 1.85 1.78 2.84s1.11 2 1.6 3Q30 25.48 29.17 27Zm3.26-17.68c1.24.72 1.72 3.6.94 7.38 0 .24-.11.49-.17.74a37.69 37.69 0 0 0-5-.79 38 38 0 0 0-3.12-3.9c.28-.27.56-.53.85-.78 2.78-2.38 5.33-3.32 6.5-2.65Z"/><circle cx="24" cy="23.97" r="3.31"/></svg>